<svg width="160" height="160" viewBox="0 0 160 160" fill="none" xmlns="http://www.w3.org/2000/svg">
<rect width="160" height="160" rx="35" fill="#FB2C36"/>
<path d="M109.779 48.1058C114.294 43.6022 122 46.8006 122 53.1782V105.881C122 110.365 118.365 114 113.882 114H82.3312C79.3425 114 77.856 110.377 79.9832 108.277L115.877 72.8513C118.208 70.5199 118.208 66.7401 115.877 64.4087C113.546 62.0774 109.766 62.0774 107.435 64.4087L74.1329 97.087C70.7762 100.444 65.3341 100.444 61.9774 97.087L51.4877 86.5961C49.1566 84.2649 45.3771 84.2648 43.046 86.5961C40.715 88.9274 40.715 92.7073 43.046 95.0386L56.2996 108.293C58.4055 110.399 56.9141 114 53.9361 114H45.118C40.6345 114 37 110.365 37 105.881V53.6665C37 47.2212 44.846 44.0545 49.3192 48.6943L71.9262 72.1437C75.6312 75.9866 81.7667 76.0464 85.546 72.2767L109.779 48.1058Z" fill="white"/>
</svg>
